<?xml version="1.0" standalone="no"?>
<!DOCTYPE svg PUBLIC "-//W3C//DTD SVG 20010904//EN"
 "http://www.w3.org/TR/2001/REC-SVG-20010904/DTD/svg10.dtd">
<svg version="1.0" xmlns="http://www.w3.org/2000/svg"
 width="840.000000pt" height="1060.000000pt" viewBox="0 0 840.000000 1060.000000"
 preserveAspectRatio="xMidYMid meet">

<g transform="translate(0.000000,1060.000000) scale(0.100000,-0.100000)"
fill="#000000" stroke="none">
<path d="M4052 10190 c-129 -24 -271 -89 -378 -174 -184 -147 -291 -357 -319
-627 l-7 -67 -352 -5 c-210 -3 -365 -9 -387 -16 -48 -15 -85 -57 -100 -111 -8
-30 -13 -198 -16 -512 l-5 -468 67 -75 67 -75 1492 0 c884 0 1525 4 1574 10
152 17 186 59 204 248 6 71 8 259 5 477 -5 391 -11 437 -62 485 -33 31 -132
39 -506 40 l-286 0 -12 97 c-26 199 -93 363 -199 489 -105 124 -263 224 -420
265 -89 23 -279 33 -360 19z m255 -479 c100 -51 153 -132 153 -236 0 -169
-104 -268 -282 -268 -58 0 -73 4 -110 29 -53 37 -125 134 -134 181 -17 92 17
186 92 252 81 71 192 88 281 42z"/>
<path d="M6516 9013 c-3 -4 -6 -142 -6 -308 l0 -302 253 -7 c282 -8 322 -14
340 -54 16 -36 16 -7022 0 -7180 -5 -57 -15 -108 -21 -114 -6 -6 -44 -15 -84
-20 -41 -5 -1269 -11 -2847 -14 l-2773 -6 -49 48 -49 48 1 3101 c0 1705 4
3328 8 3606 7 450 9 510 24 533 32 48 46 51 315 54 l252 4 0 305 0 305 -312
-5 c-345 -5 -373 -9 -503 -73 -170 -83 -291 -224 -355 -414 -20 -58 -23 -97
-31 -355 -11 -376 -11 -6322 0 -6820 8 -352 10 -385 31 -445 67 -200 200 -348
403 -450 l99 -50 2984 0 2984 0 93 46 c209 105 305 201 411 411 l46 93 0 3759
0 3759 -32 68 c-75 163 -205 309 -349 391 -110 62 -162 73 -399 78 -113 3
-255 7 -316 10 -61 2 -114 1 -118 -2z"/>
<path d="M3204 7306 c-59 -19 -177 -80 -261 -137 -201 -136 -443 -361 -523
-487 -25 -39 -49 -71 -54 -71 -4 -1 -34 21 -65 47 -109 94 -169 134 -190 127
-26 -8 -81 -71 -81 -93 0 -62 287 -403 351 -417 31 -7 73 11 106 47 12 12 71
96 132 186 61 90 137 195 168 235 82 105 233 257 349 352 158 131 195 180 162
213 -15 15 -41 14 -94 -2z"/>
<path d="M1732 7180 c-46 -4 -77 -12 -82 -20 -18 -29 -21 -150 -18 -685 2
-412 6 -555 15 -571 26 -46 45 -47 652 -52 l573 -4 30 29 c64 60 63 54 63 430
0 355 -3 384 -39 354 -20 -17 -147 -204 -177 -261 -20 -39 -24 -63 -27 -172
l-4 -128 -419 0 -419 0 0 420 0 420 267 0 266 0 126 125 126 125 -430 -2
c-236 0 -463 -4 -503 -8z"/>
<path d="M3768 7141 c-74 -11 -117 -66 -104 -135 11 -56 52 -83 138 -91 132
-12 2519 0 2563 13 54 15 75 43 75 102 0 58 -19 84 -75 101 -31 10 -308 14
-1295 15 -690 1 -1276 -1 -1302 -5z"/>
<path d="M3830 6591 c-52 -4 -106 -12 -118 -20 -27 -14 -52 -67 -52 -108 0
-40 33 -89 67 -98 43 -12 1576 -18 1678 -7 71 8 92 14 111 34 48 48 48 122 0
167 -22 21 -40 25 -143 32 -136 9 -1401 9 -1543 0z"/>
<path d="M1964 5250 c-204 -4 -275 -8 -287 -18 -40 -34 -42 -65 -42 -657 0
-313 3 -582 8 -597 15 -53 7 -53 633 -56 453 -2 589 0 620 10 68 23 67 16 72
662 l4 569 -48 48 -48 49 -321 -2 c-176 -1 -442 -5 -591 -8z m756 -660 l0
-420 -27 -7 c-16 -5 -198 -8 -405 -8 -296 0 -380 3 -390 13 -10 10 -14 104
-16 427 l-3 415 421 0 420 0 0 -420z"/>
<path d="M3840 5174 c-121 -8 -140 -13 -161 -47 -10 -18 -19 -45 -19 -60 0
-36 25 -83 51 -98 44 -23 327 -29 1449 -32 l1155 -2 48 22 c35 17 51 31 62 57
21 49 19 99 -3 119 -43 39 -82 40 -1322 42 -663 1 -1230 0 -1260 -1z"/>
<path d="M3744 4613 c-46 -6 -76 -43 -81 -100 -4 -38 -1 -53 17 -75 41 -53 39
-53 940 -53 l835 0 36 22 c42 26 59 59 59 112 0 55 -26 82 -86 92 -48 8 -1659
10 -1720 2z"/>
<path d="M1711 3290 c-47 -11 -63 -32 -72 -92 -11 -76 -10 -1105 1 -1152 9
-39 23 -53 70 -70 14 -5 281 -11 595 -13 l570 -5 48 50 49 49 -4 574 c-3 407
-7 582 -15 601 -7 15 -24 35 -40 45 -25 17 -66 18 -598 20 -313 1 -585 -2
-604 -7z m1009 -660 l0 -420 -420 0 -420 0 0 420 0 420 420 0 420 0 0 -420z"/>
<path d="M4195 3240 c-313 -3 -456 -9 -470 -17 -80 -45 -84 -151 -8 -200 26
-17 102 -18 1303 -18 1363 0 1372 0 1405 48 21 30 19 109 -2 136 -10 12 -36
27 -58 32 -90 23 -1110 32 -2170 19z"/>
<path d="M3803 2680 c-87 -8 -105 -16 -129 -61 -23 -45 -18 -94 14 -130 l27
-31 155 -10 c89 -5 459 -8 870 -6 777 3 750 1 793 59 25 34 25 94 0 128 -44
58 -8 56 -863 57 -432 1 -822 -2 -867 -6z"/>
</g>
</svg>
