<?xml version="1.0" encoding="utf-8"?>
<!-- Svg Vector Icons : http://www.onlinewebfonts.com/icon -->
<!DOCTYPE svg PUBLIC "-//W3C//DTD SVG 1.1//EN" "http://www.w3.org/Graphics/SVG/1.1/DTD/svg11.dtd">
<svg version="1.1" xmlns="http://www.w3.org/2000/svg" xmlns:xlink="http://www.w3.org/1999/xlink" x="0px" y="0px" viewBox="0 0 1000 1000" enable-background="new 0 0 1000 1000" xml:space="preserve">
<metadata> Svg Vector Icons : http://www.onlinewebfonts.com/icon </metadata>
<g><g transform="translate(0.000000,511.000000) scale(0.100000,-0.100000)"><path d="M1870.7,4962.8c-217.6-59.9-331.4-225.6-349.3-509l-10-177.7l-521-8c-445.2-6-533-12-600.9-41.9c-109.8-49.9-185.6-125.8-241.5-243.5l-47.9-99.8l2-4132.2c0-3399.6,4-4146.2,25.9-4208c43.9-117.8,127.8-213.6,239.5-265.5l101.8-47.9h3515.4H7498l103.8,51.9c57.9,27.9,127.8,81.9,155.7,119.8c109.8,143.7,107.8,95.8,107.8,2161.9v1908.4l988.1,988.1c676.7,678.7,996.1,1012.1,1018.1,1062c37.9,95.8,37.9,275.5,0,371.3c-41.9,99.8-1068,1131.9-1177.8,1183.8c-105.8,49.9-273.5,47.9-387.3-2c-47.9-22-165.7-117.8-263.5-211.6l-175.7-171.7l-6,614.8c-6,590.9-8,620.8-49.9,698.7c-24,45.9-73.9,107.8-109.8,137.7c-133.7,113.8-161.7,117.8-738.6,125.8l-535,8v181.6c0,167.7-6,193.6-59.9,287.5c-67.9,119.8-167.7,193.6-299.4,223.6C5925,5002.8,1994.4,4994.8,1870.7,4962.8z M5769.3,3872.9v-459.1l-1790.6,4l-1792.6,6l-6,429.2c-2,235.6,0,439.2,4,453.1c8,20,367.3,25.9,1798.6,25.9h1786.6V3872.9z M1521.3,3369.8c12-337.4,69.9-455.1,265.5-560.9l79.8-43.9h2118h2118l95.8,59.9c53.9,33.9,125.8,99.8,159.7,147.7c57.9,81.8,59.9,93.8,69.9,357.3l10,273.5h379.3h379.3l6-788.5l4-786.5L5483.8,299.6c-1036-1038-1748.7-1766.7-1786.6-1826.6c-107.8-175.7-866.4-1946.3-878.3-2048.1c-12-127.8,24-221.6,115.8-305.4c85.8-75.9,175.7-101.8,305.4-85.8c85.8,10,1876.5,778.5,2020.2,868.4c43.9,25.9,499.1,467.1,1014.1,978.2l932.2,932.2v-1463.2v-1461.2H3982.7H758.8v3862.7v3862.7H1136h377.3L1521.3,3369.8z M8841.5,2048.3l329.4-329.4L7076.8-383.1C5925-1538.9,4956.8-2503.1,4922.9-2527c-57.9-37.9-1173.8-531-1179.8-521c-2,2,107.8,265.5,245.5,582.9l251.5,578.9l2126,2132c1169.8,1171.8,2132,2130,2138,2130S8661.8,2228,8841.5,2048.3z"/><path d="M1547.3,2166.1c-47.9-45.9-49.9-59.9-49.9-289.5c0-213.6,4-243.5,39.9-279.5c39.9-39.9,65.9-39.9,2425.4-39.9c2359.5,0,2385.5,0,2425.4,39.9c35.9,35.9,39.9,65.9,39.9,287.5c0,245.5,0,249.5-51.9,289.5c-53.9,41.9-55.9,41.9-2417.4,41.9H1595.2L1547.3,2166.1z"/><path d="M1537.3,439.4c-35.9-35.9-39.9-65.9-39.9-287.5c0-245.6,0-249.5,51.9-289.5c51.9-41.9,65.9-41.9,1489.2-41.9h1435.3l47.9,49.9c47.9,45.9,49.9,59.9,49.9,275.5c0,199.6-6,233.6-41.9,281.5l-39.9,51.9H3032.5C1603.2,479.3,1577.2,479.3,1537.3,439.4z"/><path d="M1583.2-1257.4c-71.9-29.9-85.8-85.8-85.8-327.4c0-341.4-83.8-311.4,858.4-311.4c944.2,0,858.4-31.9,858.4,317.4c0,203.6-6,243.5-37.9,283.5l-37.9,47.9l-756.6,4C1966.5-1241.5,1607.2-1247.5,1583.2-1257.4z"/></g></g>
</svg>